<?xml version="1.0" encoding="UTF-8"?>
<svg version="1.1" xmlns="http://www.w3.org/2000/svg" width="2000" height="1500">
<path d="M0 0 C660 0 1320 0 2000 0 C2000 495 2000 990 2000 1500 C1340 1500 680 1500 0 1500 C0 1005 0 510 0 0 Z " fill="#FF4136" transform="translate(0,0)"/>
<path d="M0 0 C87.12 0 174.24 0 264 0 C264 78.87 264 157.74 264 239 C269.61 239 275.22 239 281 239 C280.97292969 237.69417969 280.94585938 236.38835937 280.91796875 235.04296875 C280.92071784 230.34660057 281.49908091 225.92801826 282.3125 221.3125 C282.59315413 219.62923987 282.87171967 217.94563046 283.1484375 216.26171875 C283.29120117 215.39466309 283.43396484 214.52760742 283.58105469 213.63427734 C284.26921723 209.30719471 284.85579667 204.96748297 285.4375 200.625 C285.61998291 199.26737549 285.61998291 199.26737549 285.80615234 197.88232422 C286.06505713 195.95462723 286.32367357 194.02689149 286.58203125 192.09912109 C287.35379068 186.37674129 288.14683842 180.65729322 288.9375 174.9375 C289.27996585 172.45703373 289.62241361 169.97656495 289.96484375 167.49609375 C290.13612793 166.25585449 290.30741211 165.01561523 290.48388672 163.73779297 C290.9908697 160.0661234 291.49747562 156.39440205 292.00390625 152.72265625 C292.25019775 150.93710327 292.25019775 150.93710327 292.50146484 149.11547852 C292.8366012 146.6850014 293.17155925 144.25449968 293.50634766 141.82397461 C294.29781427 136.07991524 295.09175099 130.33623986 295.89453125 124.59375 C297.52060309 112.92898563 299.10305319 101.25980315 300.6328125 89.58203125 C300.77853699 88.47001343 300.92426147 87.35799561 301.07440186 86.21228027 C301.22258362 85.08149048 301.37076538 83.95070068 301.5234375 82.78564453 C304.18053366 62.51175874 306.90407183 42.25736347 309.95703125 22.0390625 C311.04399072 14.70310383 312.01986748 7.35099386 313 0 C401.44 0 489.88 0 581 0 C579.05741035 6.47529884 577.06976303 12.83868864 574.796875 19.19140625 C574.48676483 20.06467056 574.17665466 20.93793488 573.85714722 21.83766174 C573.18084252 23.74121634 572.50342424 25.6443756 571.82501221 27.54718018 C570.71753928 30.65354961 569.61304172 33.76096336 568.50927734 36.86865234 C566.88234638 41.44902812 565.2544216 46.02904904 563.62597656 50.60888672 C559.19156867 63.08506309 554.77584509 75.56786202 550.35914612 88.05031586 C549.62264072 90.13166729 548.88598806 92.21296654 548.14929199 94.29425049 C541.41009704 113.33403766 534.69530132 132.38222535 528 151.4375 C522.75630421 166.35990536 517.49496893 181.27556795 512.17163086 196.16976929 C511.26451164 198.7093727 510.35960285 201.24975472 509.45507812 203.7902832 C506.60915196 211.77302625 503.73446232 219.74346772 500.79486084 227.69226074 C499.36429498 231.5659135 497.9464197 235.44415465 496.52966309 239.32287598 C495.85120915 241.16921979 495.16653775 243.01329259 494.47521973 244.8548584 C493.51992683 247.40038952 492.58607398 249.95288874 491.65625 252.5078125 C491.37066223 253.25171234 491.08507446 253.99561218 490.79083252 254.76205444 C487.55011192 263.8256582 490.52237361 271.22468986 493.65625 279.90625 C494.03007813 280.96227417 494.40390625 282.01829834 494.7890625 283.10632324 C496.01847139 286.57362473 497.25923094 290.03674929 498.5 293.5 C499.36731566 295.93982731 500.23384123 298.37993562 501.09960938 300.8203125 C502.87207582 305.81271869 504.64890642 310.8035247 506.4296875 315.79296875 C508.7540764 322.30662297 511.06771628 328.82401928 513.375 335.34375 C513.71861572 336.31469604 514.06223145 337.28564209 514.41625977 338.28601074 C515.10225847 340.22459348 515.7882126 342.16319199 516.47412109 344.10180664 C517.50916203 347.0258835 518.5454122 349.94952914 519.58203125 352.87304688 C525.31775897 369.05137304 531.01562191 385.24290501 536.70800781 401.43652344 C541.94112479 416.32230477 547.18965517 431.20246436 552.462677 446.07415771 C555.25712769 453.95610191 558.04858886 461.8391056 560.83953857 469.72229004 C561.64822878 472.00642623 562.45703487 474.29052139 563.26593018 476.57458496 C565.93553224 484.11363498 568.60152552 491.65394168 571.26318359 499.19580078 C572.12551042 501.63760185 572.98894451 504.07901219 573.85351562 506.52001953 C575.05241145 509.90554845 576.24739322 513.29243399 577.44140625 516.6796875 C577.98378685 518.20721146 577.98378685 518.20721146 578.53712463 519.76559448 C578.86333298 520.69356842 579.18954132 521.62154236 579.52563477 522.57763672 C579.95502098 523.79276443 579.95502098 523.79276443 580.39308167 525.03244019 C581 527 581 527 581 529 C492.23 529 403.46 529 312 529 C310.50890569 524.52671708 309.39804648 520.47583537 308.484375 515.890625 C308.20315423 514.49608786 307.92190297 513.10155686 307.640625 511.70703125 C307.49560547 510.98080566 307.35058594 510.25458008 307.20117188 509.50634766 C304.96014718 498.29879885 302.63194982 487.12325901 300 476 C297.67212378 466.13778969 295.57764861 456.24205421 293.5625 446.3125 C290.28127237 430.15119891 286.70465979 414.06953356 283 398 C282.71318359 396.75557129 282.42636719 395.51114258 282.13085938 394.22900391 C281.42125141 391.15251269 280.71072345 388.07623371 280 385 C274.72 384.67 269.44 384.34 264 384 C264 431.85 264 479.7 264 529 C176.88 529 89.76 529 0 529 C0 354.43 0 179.86 0 0 Z " fill="#FFFEFE" transform="translate(649,483)"/>
<path d="M0 0 C0.77907715 0.09809967 1.5581543 0.19619934 2.36083984 0.29727173 C12.39044429 1.57477673 22.2240053 3.31123407 32.125 5.375 C34.04971414 5.74645797 35.97541826 6.1128456 37.90234375 6.47265625 C39.19688477 6.71532227 39.19688477 6.71532227 40.51757812 6.96289062 C42.24132181 7.28435625 43.96528753 7.60463316 45.68945312 7.92382812 C46.97045898 8.16456055 46.97045898 8.16456055 48.27734375 8.41015625 C49.3909729 8.61717163 49.3909729 8.61717163 50.52709961 8.82836914 C54.08244134 9.57645768 57.60028507 10.49382127 61.125 11.375 C61.125 85.295 61.125 159.215 61.125 235.375 C-6.525 235.375 -74.175 235.375 -143.875 235.375 C-143.875 266.065 -143.875 296.755 -143.875 328.375 C-133.975 328.375 -124.075 328.375 -113.875 328.375 C-113.875 310.885 -113.875 293.395 -113.875 275.375 C-87.75 274.4375 -87.75 274.4375 -79.59326172 274.14868164 C-77.41372992 274.06936699 -75.23420474 273.98987015 -73.0546875 273.91015625 C-71.960354 273.87208862 -70.86602051 273.834021 -69.73852539 273.7947998 C-64.24804193 273.59174041 -58.77894694 273.30881856 -53.30078125 272.88647461 C-44.17100832 272.20785134 -35.03136954 271.94760781 -25.8828125 271.65625 C-23.96490627 271.59307744 -22.04700888 271.52963594 -20.12911987 271.46594238 C-15.10468709 271.29965568 -10.08016174 271.13637006 -5.05560303 270.97393799 C2.94599414 270.71485266 10.94745087 270.45149307 18.94888687 270.18748474 C21.69773289 270.09726053 24.44662373 270.00853159 27.19552612 269.92004395 C40.51041239 269.48442035 53.81296765 268.92966801 67.125 268.375 C67.125 353.185 67.125 437.995 67.125 525.375 C23.09428704 528.85110892 23.09428704 528.85110892 9.39428711 529.40087891 C6.94405668 529.49973547 4.49457405 529.61045844 2.04492188 529.72265625 C-35.66944241 531.38183455 -73.43410241 531.63894688 -111.17924595 531.71606255 C-118.34550009 531.73098286 -125.51139583 531.75567647 -132.67749023 531.80712891 C-192.12570562 532.22470192 -251.48271703 529.20617162 -305.875 502.375 C-306.71224609 501.96523926 -307.54949219 501.55547852 -308.41210938 501.13330078 C-324.95207253 492.96328601 -339.90948824 483.46682376 -353.875 471.375 C-354.69097656 470.66988281 -355.50695313 469.96476562 -356.34765625 469.23828125 C-384.45778147 444.42474758 -404.16364688 414.0675186 -416.97460938 378.83105469 C-417.72859437 376.77436026 -418.5235349 374.73274228 -419.328125 372.6953125 C-427.64403611 351.16868184 -431.63784697 327.26418137 -433.875 304.375 C-433.96668457 303.50794434 -434.05836914 302.64088867 -434.15283203 301.74755859 C-437.6094369 268.22843419 -437.39480664 233.7621493 -432.875 200.375 C-432.59323714 198.08469845 -432.31198899 195.79433353 -432.03125 193.50390625 C-425.87851125 145.8031656 -408.35856936 99.56375113 -374.875 64.375 C-374.36453125 63.8372998 -373.8540625 63.29959961 -373.328125 62.74560547 C-365.41237797 54.46227556 -357.28544927 46.94109973 -347.875 40.375 C-347.26382324 39.94654785 -346.65264648 39.5180957 -346.02294922 39.07666016 C-327.7342753 26.41455982 -307.9422565 16.47601838 -286.875 9.375 C-285.9787793 9.07255371 -285.08255859 8.77010742 -284.15917969 8.45849609 C-262.97860462 1.43451692 -241.03424008 -3.75757075 -218.84765625 -6.28515625 C-216.77323079 -6.52231133 -214.70037357 -6.7734185 -212.62890625 -7.03515625 C-142.76092411 -15.68102695 -69.54420151 -8.81917274 0 0 Z " fill="#FFFEFE" transform="translate(1665.875,486.625)"/>
<path d="M0 0 C87.12 0 174.24 0 264 0 C264.0806627 98.52948577 264.0806627 98.52948577 264.09765625 139.74023438 C264.10157166 149.17211921 264.10561252 158.60400398 264.10986328 168.03588867 C264.11039078 169.2179282 264.11091828 170.39996773 264.11146176 171.61782664 C264.12014677 190.67013515 264.13590688 209.72243152 264.15430559 228.77473285 C264.17304657 248.34551826 264.18412558 267.91629734 264.18817699 287.48709136 C264.19091335 299.5512588 264.19953797 311.61539191 264.21583293 323.67954878 C264.22645169 331.96627242 264.22958962 340.25297846 264.22700275 348.5397084 C264.22572904 353.31183639 264.22760182 358.08390466 264.23841095 362.85602188 C264.3181983 399.93302317 264.3181983 399.93302317 262 417 C261.90447539 417.73549651 261.80895077 418.47099301 261.71053147 419.22877729 C257.26024004 453.08471473 241.23717933 483.75149489 214.27148438 504.90405273 C191.48062797 521.80456769 161.84509332 530.48589567 134 534 C133.34136963 534.08540039 132.68273926 534.17080078 132.00415039 534.25878906 C116.33651921 536.22049225 100.67133678 536.31151085 84.90820312 536.26074219 C81.34645873 536.24937027 77.78501404 536.25611439 74.22327995 536.26762104 C57.72483006 536.31284976 41.41296569 535.83487049 25 534 C23.64960991 533.85759608 22.29918935 533.71548058 20.94873047 533.57373047 C1.00197371 531.36705112 -18.46942486 527.50685042 -38 523 C-38.98661621 522.77699219 -39.97323242 522.55398438 -40.98974609 522.32421875 C-70.40400024 515.59599976 -70.40400024 515.59599976 -77 509 C-77.09770695 506.53368729 -77.12996098 504.09541002 -77.12025452 501.62864685 C-77.12110894 500.84783392 -77.12196337 500.067021 -77.12284368 499.26254708 C-77.12450086 496.6260991 -77.11897326 493.98971368 -77.11352539 491.35327148 C-77.11324354 489.47137453 -77.1134012 487.58947746 -77.1139679 485.70758057 C-77.11425597 480.58176065 -77.10835767 475.45596392 -77.10139394 470.33014941 C-77.09516202 464.97962736 -77.09455673 459.62910483 -77.09336853 454.27857971 C-77.09025474 444.13901642 -77.0820407 433.99946386 -77.07201904 423.8599053 C-77.06085939 412.31959526 -77.05534783 400.77928472 -77.05032361 389.23897064 C-77.03985813 365.49264114 -77.02225776 341.74632117 -77 318 C-75.8908876 318.302547 -75.8908876 318.302547 -74.7593689 318.61120605 C-73.29172592 319.01152039 -73.29172592 319.01152039 -71.79443359 319.41992188 C-70.82815033 319.68349487 -69.86186707 319.94706787 -68.86630249 320.21862793 C-45.6571677 326.54558392 -24.51892237 329.01924311 0 330 C0 221.1 0 112.2 0 0 Z " fill="#FFFEFE" transform="translate(342,483)"/>
</svg>
