<svg width="559" height="561" viewBox="0 0 559 561" fill="none" xmlns="http://www.w3.org/2000/svg">
<rect x="0.396729" y="0.992188" width="558" height="560" rx="8" fill="black"/>
<path d="M126.668 38.9922H84.184V246.893C84.184 248.591 83.351 249.611 80.8519 249.611H78.3529C76.2703 249.611 75.0208 248.591 75.0208 246.893V38.9922H32.5366V247.572C32.5366 267.955 45.032 278.146 70.0226 278.146H89.1822C114.589 278.146 126.668 267.955 126.668 247.572V38.9922Z" fill="white"/>
<path d="M184.5 197.635H198.661C224.068 197.635 236.147 187.784 236.147 167.062V69.5658C236.147 48.8437 224.068 38.9922 198.661 38.9922H142.016V276.787H184.5V197.635ZM193.663 70.2452V166.382C193.663 168.421 192.83 169.1 190.331 169.1H184.5V67.5276H190.331C192.83 67.5276 193.663 68.207 193.663 70.2452Z" fill="white"/>
<path d="M285.78 197.635H299.942C325.349 197.635 337.428 187.784 337.428 167.062V69.5658C337.428 48.8437 325.349 38.9922 299.942 38.9922H243.296V276.787H285.78V197.635ZM294.944 70.2452V166.382C294.944 168.421 294.111 169.1 291.612 169.1H285.78V67.5276H291.612C294.111 67.5276 294.944 68.207 294.944 70.2452Z" fill="white"/>
<path d="M344.577 38.9922V276.787H426.63V236.841H387.061V171.138H424.964V141.584H387.061V79.6655H426.213V38.9922H344.577Z" fill="white"/>
<path d="M508.681 163.325C520.76 160.268 527.841 153.474 527.841 139.885V69.5658C527.841 48.8437 515.762 38.9922 490.355 38.9922H434.126V276.787H476.61V177.932H482.441C484.524 177.932 485.773 178.612 485.773 180.65V276.787H528.257V183.707C528.257 172.157 522.426 166.043 508.681 163.325ZM485.357 70.5849V147.019C485.357 148.718 484.524 149.737 482.025 149.737H476.61V67.8673H482.025C484.524 67.8673 485.357 68.8864 485.357 70.5849Z" fill="white"/>
<path d="M106.536 408.018C118.615 404.961 125.695 398.167 125.695 384.578V322.412C125.695 301.69 113.2 291.838 88.2093 291.838H32.3967V529.633H88.6258C113.616 529.633 126.112 519.782 126.112 499.06V428.401C126.112 416.851 119.864 410.736 106.536 408.018ZM83.6276 322.752V393.411C83.6276 394.77 82.7946 395.789 80.7121 395.789H74.8809V320.034H80.7121C82.7946 320.034 83.6276 320.713 83.6276 322.752ZM74.8809 421.946H80.7121C83.2111 421.946 84.0441 422.965 84.0441 424.324V499.06C84.0441 500.758 83.2111 501.438 80.7121 501.438H74.8809V421.946Z" fill="white"/>
<path d="M227.412 500.419V321.053C227.412 300.671 214.917 290.48 189.926 290.48H169.933C144.526 290.48 132.447 300.671 132.447 321.053V500.419C132.447 520.801 144.526 530.992 169.933 530.992H189.926C214.917 530.992 227.412 520.801 227.412 500.419ZM184.928 321.733V499.739C184.928 501.438 183.678 502.457 181.596 502.457H178.264C175.764 502.457 174.931 501.438 174.931 499.739V321.733C174.931 320.034 175.764 319.015 178.264 319.015H181.596C183.678 319.015 184.928 320.034 184.928 321.733Z" fill="white"/>
<path d="M328.683 291.838H286.199V499.739C286.199 501.438 285.366 502.457 282.866 502.457H280.367C278.285 502.457 277.035 501.438 277.035 499.739V291.838H234.551V500.419C234.551 520.801 247.047 530.992 272.037 530.992H291.197C316.604 530.992 328.683 520.801 328.683 500.419V291.838Z" fill="white"/>
<path d="M426.622 529.633V291.838H391.218L394.55 402.923L376.64 291.838H336.239V529.633H371.642L368.726 413.793L388.302 529.633H426.622Z" fill="white"/>
<path d="M434.265 529.633H485.913C514.652 529.633 528.397 518.423 528.397 494.983V326.488C528.397 303.049 514.652 291.838 485.913 291.838H434.265V529.633ZM476.749 320.374H481.331C484.663 320.374 485.913 321.733 485.913 324.111V497.021C485.913 499.739 484.663 501.098 481.331 501.098H476.749V320.374Z" fill="white"/>
</svg>
